<svg width="40" height="36" viewBox="0 0 40 36" fill="none" xmlns="http://www.w3.org/2000/svg">
<path d="M12.5322 9.30012C14.9134 9.30012 16.9498 10.1379 18.6104 11.8128C20.302 13.4566 21.1483 15.4723 21.1484 17.8294C21.1484 20.1557 20.3333 22.1718 18.6729 23.8157C17.0123 25.4597 15.007 26.3287 12.6572 26.3597L6.2666 26.3597L6.2666 31.012C6.2666 32.718 4.856 34.1136 3.13281 34.1136C1.40974 34.1135 1.59209e-07 32.7179 1.47612e-07 31.012L7.38889e-08 20.1683L7.88672 20.1683L7.88672 20.1566L12.626 20.1566C13.8479 20.1255 14.8818 19.0701 14.8818 17.8294C14.8816 16.5579 13.8166 15.5032 12.5322 15.5032L6.2666 15.5032L6.2666 15.5052L4.21862e-08 15.5052L2.10864e-08 12.4017C8.97666e-05 10.6959 1.4098 9.30026 3.13281 9.30012L12.5322 9.30012Z" fill="#02BC6B"/>
<path fill-rule="evenodd" clip-rule="evenodd" d="M25.0975 5.7002C28.5589 9.0287 30.3031 13.1742 30.3031 17.8865C30.3031 22.5197 28.6319 26.6613 25.2239 30.0002L20.3852 25.4931C22.5047 23.4166 23.545 20.9166 23.545 17.8865C23.545 14.8333 22.4734 12.3372 20.3031 10.2502L25.0975 5.7002Z" fill="#02897A"/>
<path fill-rule="evenodd" clip-rule="evenodd" d="M32.5055 -3.14562e-08C37.4911 4.92801 39.9999 11.0384 39.9999 18.0514C39.9999 24.9549 37.5922 31.0614 32.6884 36L28.0186 31.4828C31.6715 27.8041 33.4614 23.3422 33.4614 18.0514C33.4614 12.7074 31.6111 8.24939 27.8787 4.56008L32.5055 -3.14562e-08Z" fill="#035B81"/>
<path d="M6.2666 26.3857L6.2666 31.0127C6.26648 32.7185 4.85593 34.1143 3.13281 34.1143C1.40982 34.1141 0.000121934 32.7185 3.14573e-08 31.0127L0 26.3857L6.2666 26.3857Z" fill="#028E37"/>
</svg>
